# xmcd
#
# Track frame offsets:
#       182
#       18527
#       37707
#       57925
#       75542
#       96280
#       112662
#       128910
#       143740
#
# Disc length: 2170 seconds
#
# Revision: 1
# Processed by: cddbd v1.4PL0 Copyright (c) Steve Scherf et al.
# Submitted via: MusiCat 1.1
#
DISCID=66087809
DTITLE=Southside of Bombay - Bonus Compilation (Singles)
DYEAR=1900
DGENRE=
TTITLE0=What's The Time Mr Wolf
TTITLE1=All Across The World
TTITLE2=Umbadada
TTITLE3=Kia Mau
TTITLE4=Say
TTITLE5=Divide and Fool
TTITLE6=Tauira
TTITLE7=Runnung
TTITLE8=Changes
EXTD=0\n\n\n
EXTT0=
EXTT1=
EXTT2=
EXTT3=
EXTT4=
EXTT5=
EXTT6=
EXTT7=
EXTT8=
PLAYORDER=
